<mxfile host="app.diagrams.net" modified="2024-04-03T18:57:39.653Z" agent="Mozilla/5.0 (Windows NT 10.0; Win64; x64) AppleWebKit/537.36 (KHTML, like Gecko) Chrome/120.0.0.0 YaBrowser/24.1.0.0 Safari/537.36" etag="t5emyWMUjcNTqXivrzW1" version="24.2.2" type="device">
  <diagram name="Page-1" id="13e1069c-82ec-6db2-03f1-153e76fe0fe0">
    <mxGraphModel dx="1002" dy="575" grid="1" gridSize="10" guides="1" tooltips="1" connect="1" arrows="1" fold="1" page="1" pageScale="1" pageWidth="850" pageHeight="1100" background="none" math="0" shadow="0">
      <root>
        <mxCell id="0" />
        <mxCell id="1" parent="0" />
        <mxCell id="TzoxPDWC-vEPca3PCXGn-10" value="" style="rounded=0;whiteSpace=wrap;html=1;fillColor=none;fontStyle=1" parent="1" vertex="1">
          <mxGeometry x="70" y="380" width="420" height="210" as="geometry" />
        </mxCell>
        <mxCell id="7baba1c4bc27f4b0-2" value="Система" style="shape=umlLifeline;perimeter=lifelinePerimeter;whiteSpace=wrap;html=1;container=1;collapsible=0;recursiveResize=0;outlineConnect=0;rounded=1;shadow=0;comic=0;labelBackgroundColor=none;strokeWidth=1;fontFamily=Verdana;fontSize=12;align=center;" parent="1" vertex="1">
          <mxGeometry x="240" y="80" width="100" height="580" as="geometry" />
        </mxCell>
        <mxCell id="7baba1c4bc27f4b0-10" value="" style="html=1;points=[];perimeter=orthogonalPerimeter;rounded=0;shadow=0;comic=0;labelBackgroundColor=none;strokeWidth=1;fontFamily=Verdana;fontSize=12;align=center;" parent="7baba1c4bc27f4b0-2" vertex="1">
          <mxGeometry x="45" y="100" width="10" height="380" as="geometry" />
        </mxCell>
        <mxCell id="7baba1c4bc27f4b0-3" value="База данных" style="shape=umlLifeline;perimeter=lifelinePerimeter;whiteSpace=wrap;html=1;container=1;collapsible=0;recursiveResize=0;outlineConnect=0;rounded=1;shadow=0;comic=0;labelBackgroundColor=none;strokeWidth=1;fontFamily=Verdana;fontSize=12;align=center;" parent="1" vertex="1">
          <mxGeometry x="400" y="80" width="100" height="590" as="geometry" />
        </mxCell>
        <mxCell id="7baba1c4bc27f4b0-13" value="" style="html=1;points=[];perimeter=orthogonalPerimeter;rounded=0;shadow=0;comic=0;labelBackgroundColor=none;strokeWidth=1;fontFamily=Verdana;fontSize=12;align=center;" parent="7baba1c4bc27f4b0-3" vertex="1">
          <mxGeometry x="45" y="120" width="10" height="330" as="geometry" />
        </mxCell>
        <mxCell id="TzoxPDWC-vEPca3PCXGn-7" value="" style="shape=umlDestroy;whiteSpace=wrap;html=1;strokeWidth=3;targetShapes=umlLifeline;" parent="7baba1c4bc27f4b0-3" vertex="1">
          <mxGeometry x="35" y="560" width="30" height="30" as="geometry" />
        </mxCell>
        <mxCell id="7baba1c4bc27f4b0-11" value="Страница &lt;br&gt;авторизации" style="html=1;verticalAlign=bottom;endArrow=block;labelBackgroundColor=none;fontFamily=Verdana;fontSize=12;edgeStyle=elbowEdgeStyle;elbow=vertical;exitX=0.26;exitY=0.082;exitDx=0;exitDy=0;exitPerimeter=0;" parent="1" edge="1">
          <mxGeometry relative="1" as="geometry">
            <mxPoint x="286" y="225" as="sourcePoint" />
            <mxPoint x="158" y="226" as="targetPoint" />
          </mxGeometry>
        </mxCell>
        <mxCell id="7baba1c4bc27f4b0-14" value="Валидация данных" style="html=1;verticalAlign=bottom;endArrow=block;entryX=0;entryY=0;labelBackgroundColor=none;fontFamily=Verdana;fontSize=12;edgeStyle=elbowEdgeStyle;elbow=vertical;" parent="1" edge="1">
          <mxGeometry relative="1" as="geometry">
            <mxPoint x="295" y="350" as="sourcePoint" />
            <mxPoint x="445" y="350.0000000000002" as="targetPoint" />
          </mxGeometry>
        </mxCell>
        <mxCell id="TzoxPDWC-vEPca3PCXGn-1" value="Actor" style="shape=umlActor;verticalLabelPosition=bottom;verticalAlign=top;html=1;outlineConnect=0;" parent="1" vertex="1">
          <mxGeometry x="135" y="65" width="30" height="60" as="geometry" />
        </mxCell>
        <mxCell id="7baba1c4bc27f4b0-9" value="" style="html=1;points=[];perimeter=orthogonalPerimeter;rounded=0;shadow=0;comic=0;labelBackgroundColor=none;strokeWidth=1;fontFamily=Verdana;fontSize=12;align=center;" parent="1" vertex="1">
          <mxGeometry x="145" y="180" width="10" height="440" as="geometry" />
        </mxCell>
        <mxCell id="TzoxPDWC-vEPca3PCXGn-2" value="" style="endArrow=classic;html=1;rounded=0;exitX=0.82;exitY=0.272;exitDx=0;exitDy=0;exitPerimeter=0;" parent="1" source="7baba1c4bc27f4b0-9" target="7baba1c4bc27f4b0-10" edge="1">
          <mxGeometry width="50" height="50" relative="1" as="geometry">
            <mxPoint x="570" y="380" as="sourcePoint" />
            <mxPoint x="620" y="330" as="targetPoint" />
          </mxGeometry>
        </mxCell>
        <mxCell id="TzoxPDWC-vEPca3PCXGn-3" value="Ввод логина&lt;br&gt;&amp;nbsp;и пароля" style="edgeLabel;html=1;align=center;verticalAlign=middle;resizable=0;points=[];" parent="TzoxPDWC-vEPca3PCXGn-2" vertex="1" connectable="0">
          <mxGeometry x="0.1047" y="-2" relative="1" as="geometry">
            <mxPoint x="-6" y="-22" as="offset" />
          </mxGeometry>
        </mxCell>
        <mxCell id="TzoxPDWC-vEPca3PCXGn-4" value="" style="endArrow=none;dashed=1;html=1;dashPattern=1 3;strokeWidth=2;rounded=0;entryX=0.34;entryY=1.001;entryDx=0;entryDy=0;entryPerimeter=0;" parent="1" target="7baba1c4bc27f4b0-9" edge="1">
          <mxGeometry width="50" height="50" relative="1" as="geometry">
            <mxPoint x="148" y="660" as="sourcePoint" />
            <mxPoint x="220" y="600" as="targetPoint" />
          </mxGeometry>
        </mxCell>
        <mxCell id="TzoxPDWC-vEPca3PCXGn-5" value="" style="shape=umlDestroy;whiteSpace=wrap;html=1;strokeWidth=3;targetShapes=umlLifeline;" parent="1" vertex="1">
          <mxGeometry x="135" y="640" width="30" height="30" as="geometry" />
        </mxCell>
        <mxCell id="TzoxPDWC-vEPca3PCXGn-6" value="" style="shape=umlDestroy;whiteSpace=wrap;html=1;strokeWidth=3;targetShapes=umlLifeline;" parent="1" vertex="1">
          <mxGeometry x="275" y="640" width="30" height="30" as="geometry" />
        </mxCell>
        <mxCell id="TzoxPDWC-vEPca3PCXGn-11" value="" style="endArrow=none;html=1;rounded=0;exitX=0;exitY=0.5;exitDx=0;exitDy=0;entryX=1;entryY=0.5;entryDx=0;entryDy=0;" parent="1" source="TzoxPDWC-vEPca3PCXGn-10" target="TzoxPDWC-vEPca3PCXGn-10" edge="1">
          <mxGeometry width="50" height="50" relative="1" as="geometry">
            <mxPoint x="450" y="430" as="sourcePoint" />
            <mxPoint x="500" y="380" as="targetPoint" />
          </mxGeometry>
        </mxCell>
        <mxCell id="TzoxPDWC-vEPca3PCXGn-12" value="Успешная валидация" style="text;html=1;strokeColor=none;fillColor=none;align=center;verticalAlign=middle;whiteSpace=wrap;rounded=0;" parent="1" vertex="1">
          <mxGeometry x="70" y="380" width="70" height="40" as="geometry" />
        </mxCell>
        <mxCell id="TzoxPDWC-vEPca3PCXGn-14" value="&lt;div style=&quot;text-align: center;&quot;&gt;Ошибка&amp;nbsp;&lt;/div&gt;&lt;div style=&quot;text-align: center;&quot;&gt;валидации&lt;/div&gt;" style="text;whiteSpace=wrap;html=1;" parent="1" vertex="1">
          <mxGeometry x="75" y="490" width="65" height="40" as="geometry" />
        </mxCell>
        <mxCell id="TzoxPDWC-vEPca3PCXGn-18" value="" style="endArrow=classic;html=1;rounded=0;entryX=1.08;entryY=0.675;entryDx=0;entryDy=0;entryPerimeter=0;" parent="1" source="7baba1c4bc27f4b0-13" target="7baba1c4bc27f4b0-10" edge="1">
          <mxGeometry width="50" height="50" relative="1" as="geometry">
            <mxPoint x="450" y="530" as="sourcePoint" />
            <mxPoint x="500" y="480" as="targetPoint" />
          </mxGeometry>
        </mxCell>
        <mxCell id="TzoxPDWC-vEPca3PCXGn-19" value="Данные &lt;br&gt;отвалидированы" style="edgeLabel;html=1;align=center;verticalAlign=middle;resizable=0;points=[];" parent="TzoxPDWC-vEPca3PCXGn-18" vertex="1" connectable="0">
          <mxGeometry x="0.1287" y="-4" relative="1" as="geometry">
            <mxPoint x="9" y="-12" as="offset" />
          </mxGeometry>
        </mxCell>
        <mxCell id="TzoxPDWC-vEPca3PCXGn-20" value="" style="endArrow=classic;html=1;rounded=0;exitX=0.28;exitY=0.771;exitDx=0;exitDy=0;exitPerimeter=0;" parent="1" source="7baba1c4bc27f4b0-10" target="7baba1c4bc27f4b0-9" edge="1">
          <mxGeometry width="50" height="50" relative="1" as="geometry">
            <mxPoint x="280" y="450" as="sourcePoint" />
            <mxPoint x="155" y="455" as="targetPoint" />
          </mxGeometry>
        </mxCell>
        <mxCell id="TzoxPDWC-vEPca3PCXGn-21" value="Предоставление &lt;br&gt;прав доступа &lt;br&gt;к личным данным" style="edgeLabel;html=1;align=center;verticalAlign=middle;resizable=0;points=[];" parent="TzoxPDWC-vEPca3PCXGn-20" vertex="1" connectable="0">
          <mxGeometry x="0.1287" y="-4" relative="1" as="geometry">
            <mxPoint x="13" y="-21" as="offset" />
          </mxGeometry>
        </mxCell>
        <mxCell id="TzoxPDWC-vEPca3PCXGn-22" value="" style="endArrow=classic;html=1;rounded=0;entryX=1;entryY=0.894;entryDx=0;entryDy=0;entryPerimeter=0;exitX=0.28;exitY=0.973;exitDx=0;exitDy=0;exitPerimeter=0;" parent="1" source="7baba1c4bc27f4b0-13" target="7baba1c4bc27f4b0-10" edge="1">
          <mxGeometry width="50" height="50" relative="1" as="geometry">
            <mxPoint x="449" y="520" as="sourcePoint" />
            <mxPoint x="300" y="520" as="targetPoint" />
          </mxGeometry>
        </mxCell>
        <mxCell id="TzoxPDWC-vEPca3PCXGn-23" value="Данные &lt;br&gt;не валидны" style="edgeLabel;html=1;align=center;verticalAlign=middle;resizable=0;points=[];" parent="TzoxPDWC-vEPca3PCXGn-22" vertex="1" connectable="0">
          <mxGeometry x="0.1287" y="-4" relative="1" as="geometry">
            <mxPoint x="9" y="-12" as="offset" />
          </mxGeometry>
        </mxCell>
        <mxCell id="TzoxPDWC-vEPca3PCXGn-25" value="Страница &lt;br&gt;авторизации" style="html=1;verticalAlign=bottom;endArrow=block;labelBackgroundColor=none;fontFamily=Verdana;fontSize=12;edgeStyle=elbowEdgeStyle;elbow=vertical;exitX=0.12;exitY=0.919;exitDx=0;exitDy=0;exitPerimeter=0;" parent="1" source="7baba1c4bc27f4b0-10" edge="1">
          <mxGeometry relative="1" as="geometry">
            <mxPoint x="270" y="530" as="sourcePoint" />
            <mxPoint x="160" y="530" as="targetPoint" />
            <Array as="points">
              <mxPoint x="220" y="530" />
            </Array>
          </mxGeometry>
        </mxCell>
      </root>
    </mxGraphModel>
  </diagram>
</mxfile>
